#!OML:ASF F:\VICON\USERDATA\INSTALL\rory3\rory3.ASF
:FULLY-SPECIFIED
:DEGREES
354
root -0.132532 16.113 -5.78102 -159.327 0.562542 181.453
lowerback -7.66663 2.23009 1.28581
upperback -5.07678 3.34849 0.133898
thorax -0.891187 1.84511 -0.35892
lowerneck -3.15504 6.75527 1.31623
upperneck 49.4371 -3.44981 3.59315
head 20.159 -3.91437 -0.137292
rclavicle 1.59276e-014 3.97569e-016
rhumerus 82.0831 1.67476 -42.875
rradius 30.468
rwrist -19.8769
rhand 11.6353 17.8663
rfingers 7.12502
rthumb 36.6757 -8.28129
lclavicle 1.59276e-014 3.97569e-016
lhumerus 85.2708 0.807188 35.2554
lradius 60.6698
lwrist 58.8634
lhand 14.1615 22.3001
lfingers 7.12502
lthumb 39.0618 47.8024
rfemur -28.1643 0.505483 28.8982
rtibia 44.345
rfoot -33.1746 -30.499
rtoes -10.0773
lfemur -56.2712 11.1792 -35.53
ltibia 40.2083
lfoot -21.7828 18.6647
ltoes -12.1365
355
root -0.133434 16.1132 -5.74767 -160.027 -0.829114 181.304
lowerback -7.41232 2.33722 1.64043
upperback -4.73177 2.62834 0.220464
thorax -0.665019 1.11546 -0.513426
lowerneck -3.99221 6.82671 1.30046
upperneck 49.6178 -2.94739 3.11804
head 20.4998 -3.71731 -0.299498
rclavicle 2.67365e-014 2.10712e-014
rhumerus 82.8768 0.336577 -43.2627
rradius 30.5298
rwrist -21.5138
rhand 11.963 15.8561
rfingers 7.12502
rthumb 36.9857 -10.212
lclavicle 2.67365e-014 2.10712e-014
lhumerus 85.16 2.49737 34.9295
lradius 60.6419
lwrist 59.6553
lhand 14.1669 20.8583
lfingers 7.12502
lthumb 39.0669 46.3591
rfemur -26.9143 -0.20008 29.1976
rtibia 43.5317
rfoot -34.412 -30.9563
rtoes -10.1542
lfemur -55.4248 10.6772 -35.4545
ltibia 40.0737
lfoot -20.9055 18.1821
ltoes -12.3008
356
root -0.110651 16.1071 -5.69494 -159.967 -0.501167 181.241
lowerback -7.44327 2.44469 1.3736
upperback -4.9049 2.76689 0.217751
thorax -0.836733 1.17912 -0.360173
lowerneck -3.65253 7.0494 1.58929
upperneck 49.9413 -2.85031 3.01043
head 20.6534 -3.69429 -0.413563
rclavicle -1.43622e-014 8.94531e-015
rhumerus 83.273 -0.597261 -43.4955
rradius 32.0613
rwrist -32.1328
rhand 13.9747 9.79773
rfingers 7.12502
rthumb 38.8857 -15.755
lclavicle -1.43622e-014 8.94531e-015
lhumerus 84.8096 3.80119 34.614
lradius 61.1075
lwrist 59.9799
lhand 13.2781 21.098
lfingers 7.12502
lthumb 38.2284 46.8347
rfemur -26.7415 0.845886 29.133
rtibia 42.8738
rfoot -35.2341 -31.519
rtoes -9.23364
lfemur -55.6219 10.6382 -35.4254
ltibia 39.8524
lfoot -20.585 18.4617
ltoes -10.8357
357
root -0.0687051 16.1008 -5.65087 -159.979 -0.0593051 181.23
lowerback -7.36274 1.97282 0.928392
upperback -5.2698 3.05498 0.279352
thorax -1.28808 1.71575 -0.0509984
lowerneck -2.79856 7.14805 1.96902
upperneck 49.9953 -2.82345 2.73715
head 20.4412 -3.71573 -0.627236
rclavicle -5.17834e-014 -1.27222e-014
rhumerus 83.0769 -1.30559 -43.6039
rradius 33.7349
rwrist -43.2663
rhand 15.159 5.63651
rfingers 7.12502
rthumb 40.0013 -19.5891
lclavicle -5.17834e-014 -1.27222e-014
lhumerus 84.1609 4.94465 33.8765
lradius 61.6976
lwrist 60.3639
lhand 12.1237 21.3689
lfingers 7.12502
lthumb 37.1377 47.3976
rfemur -26.5526 2.54603 29.1774
rtibia 42.2475
rfoot -36.3912 -32.3885
rtoes -6.74087
lfemur -55.7753 10.6669 -35.1952
ltibia 39.6356
lfoot -20.0634 18.9992
ltoes -10.3544
358
root -0.0623186 16.1038 -5.60612 -160.011 -0.36364 181.079
lowerback -7.38017 2.43163 0.858434
upperback -5.50031 2.71298 0.227522
thorax -1.51429 1.12856 -0.0803067
lowerneck -2.76883 7.05301 1.49494
upperneck 49.7845 -2.93568 3.0458
head 20.2724 -3.82088 -0.394426
rclavicle 6.58474e-015 -3.18055e-015
rhumerus 83.173 -2.39685 -44.0234
rradius 34.2926
rwrist -48.7296
rhand 16.7604 3.26704
rfingers 7.12502
rthumb 41.506 -21.4863
lclavicle 6.58474e-015 -3.18055e-015
lhumerus 83.3896 6.2152 33.191
lradius 62.3152
lwrist 60.4164
lhand 11.9125 20.5869
lfingers 7.12502
lthumb 36.938 46.6674
rfemur -26.4425 2.56995 29.1709
rtibia 41.7381
rfoot -37.0269 -32.8173
rtoes -5.40064
lfemur -55.7399 10.4436 -35.3494
ltibia 39.4385
lfoot -19.4744 19.0804
ltoes -10.5527
359
root -0.0577744 16.1097 -5.56177 -160.03 -0.662863 180.977
lowerback -7.59332 2.29207 0.922273
upperback -5.56087 2.5066 0.261118
thorax -1.45981 1.0179 -0.0874241
lowerneck -2.95484 6.95469 0.818688
upperneck 49.4987 -2.93917 3.43255
head 20.1056 -3.88113 -0.0610796
rclavicle 5.3647e-014 2.28602e-014
rhumerus 83.3695 -3.4987 -43.8242
rradius 34.4948
rwrist -50.3461
rhand 17.177 3.34488
rfingers 7.12502
rthumb 41.8967 -21.2797
lclavicle 5.3647e-014 2.28602e-014
lhumerus 82.6398 7.62113 32.6561
lradius 63.0654
lwrist 60.1513
lhand 12.1288 19.8496
lfingers 7.12502
lthumb 37.1425 45.8771
rfemur -26.3537 2.47654 29.1733
rtibia 41.2404
rfoot -37.4651 -33.0891
rtoes -4.31775
lfemur -55.7576 10.3308 -35.5464
ltibia 39.286
lfoot -18.8031 18.8517
ltoes -11.2403
360
root -0.0507575 16.1112 -5.51333 -159.939 -0.939148 181.205
lowerback -7.88705 2.26862 1.30737
upperback -5.76974 2.41076 0.336327
thorax -1.50256 0.942052 -0.224497
lowerneck -2.02525 7.07896 0.889351
upperneck 49.5253 -3.17404 3.75998
head 19.8876 -4.01003 0.0454223
rclavicle -1.44864e-014 -1.31198e-014
rhumerus 83.4809 -4.32358 -43.9647
rradius 34.7611
rwrist -49.5558
rhand 17.1943 3.76083
rfingers 7.12502
rthumb 41.913 -20.8583
lclavicle -1.44864e-014 -1.31198e-014
lhumerus 81.8345 8.94713 31.9874
lradius 63.9185
lwrist 59.9739
lhand 12.1415 19.8258
lfingers 7.12502
lthumb 37.1545 45.8502
rfemur -26.362 2.5773 29.5339
rtibia 40.7787
rfoot -37.761 -33.3627
rtoes -3.91073
lfemur -56.0095 10.2626 -35.3891
ltibia 39.1865
lfoot -18.0858 17.8071
ltoes -11.4523
361
root -0.0355894 16.1116 -5.45876 -159.907 -1.05886 181.529
lowerback -7.87305 2.33359 1.669
upperback -6.05561 2.4377 0.415987
thorax -1.79525 0.924049 -0.347147
lowerneck -1.40334 7.18532 1.13127
upperneck 49.6619 -3.25108 3.71396
head 19.8237 -4.06995 -0.0467123
rclavicle -8.4235e-015 -6.95746e-015
rhumerus 83.3101 -5.20395 -44.0075
rradius 35.3377
rwrist -48.7303
rhand 17.4168 3.55857
rfingers 7.12502
rthumb 42.1215 -20.9906
lclavicle -8.4235e-015 -6.95746e-015
lhumerus 80.9624 10.1445 31.184
lradius 64.6187
lwrist 59.7788
lhand 12.2345 19.4642
lfingers 7.12502
lthumb 37.2425 45.4655
rfemur -26.3817 3.15485 29.9456
rtibia 40.3762
rfoot -38.2898 -33.5435
rtoes -2.47722
lfemur -56.288 10.1973 -34.9744
ltibia 39.1785
lfoot -17.8461 17.6833
ltoes -9.78643
362
root -0.0125822 16.1115 -5.40422 -159.926 -0.798069 181.725
lowerback -8.15909 2.49796 1.73265
upperback -5.64856 2.68598 0.440158
thorax -1.2088 1.07326 -0.324575
lowerneck -2.6289 7.06427 1.09779
upperneck 49.8747 -3.24639 3.60002
head 20.3315 -4.00194 -0.102396
rclavicle 5.14355e-015 -8.34896e-015
rhumerus 83.555 -7.15917 -43.7237
rradius 36.2727
rwrist -48.8865
rhand 18.7965 6.45844
rfingers 7.12502
rthumb 43.4123 -17.6402
lclavicle 5.14355e-015 -8.34896e-015
lhumerus 80.8228 12.0761 30.7674
lradius 65.3015
lwrist 59.1012
lhand 12.3811 19.1673
lfingers 7.12502
lthumb 37.3811 45.1323
rfemur -26.3956 4.12735 30.1151
rtibia 40.0894
rfoot -38.6402 -33.9072
rtoes -1.12307
lfemur -56.538 10.2771 -34.6495
ltibia 39.2042
lfoot -17.9815 17.5801
ltoes -5.10914
363
root -0.00502139 16.1083 -5.34763 -159.959 -0.900523 182.077
lowerback -8.36718 2.52481 2.14759
upperback -5.70902 2.66839 0.609813
thorax -1.14667 1.0465 -0.376059
lowerneck -2.15467 7.24176 1.11352
upperneck 50.0833 -3.17127 3.55289
head 20.3513 -4.03567 -0.13219
rclavicle -1.88348e-014 -9.74045e-015
rhumerus 83.0928 -8.27204 -42.9689
rradius 37.7135
rwrist -49.7794
rhand 19.1606 7.05595
rfingers 7.12502
rthumb 43.7524 -16.9187
lclavicle -1.88348e-014 -9.74045e-015
lhumerus 79.8171 13.3625 30.3064
lradius 66.3695
lwrist 58.1002
lhand 12.7 20.0886
lfingers 7.12502
lthumb 37.6825 45.9735
rfemur -26.3783 4.22285 30.5256
rtibia 39.8573
rfoot -38.7032 -33.7894
rtoes -0.306175
lfemur -56.7767 10.1408 -34.1631
ltibia 39.2644
lfoot -17.0954 18.8645
ltoes -2.05507
364
root 0.00811062 16.1085 -5.29505 -159.961 -0.961788 182.196
lowerback -8.64129 2.60289 2.32158
upperback -5.59497 2.75508 0.631688
thorax -0.868969 1.09127 -0.431654
lowerneck -2.5171 7.16036 0.817829
upperneck 50.1417 -3.33512 3.77814
head 20.5155 -4.11399 0.00839764
rclavicle 6.06293e-015 -8.15017e-015
rhumerus 82.4788 -9.74753 -42.2114
rradius 39.6017
rwrist -49.8696
rhand 18.7008 5.08211
rfingers 7.12502
rthumb 43.3229 -19.0487
lclavicle 6.06293e-015 -8.15017e-015
lhumerus 79.1313 14.8737 29.7456
lradius 67.5872
lwrist 57.023
lhand 12.88 21.1557
lfingers 7.12502
lthumb 37.8525 46.9949
rfemur -26.493 4.36508 30.6817
rtibia 39.6945
rfoot -38.5167 -33.8836
rtoes -0.482156
lfemur -57.0175 10.0036 -33.9229
ltibia 39.3065
lfoot -17.5273 17.2717
ltoes -0.267772
